<?xml version="1.0" standalone="no"?>
<!DOCTYPE svg PUBLIC "-//W3C//DTD SVG 20010904//EN"
 "http://www.w3.org/TR/2001/REC-SVG-20010904/DTD/svg10.dtd">
<svg version="1.0" xmlns="http://www.w3.org/2000/svg"
 width="512.000000pt" height="512.000000pt" viewBox="0 0 512.000000 512.000000"
 preserveAspectRatio="xMidYMid meet">
<metadata>
Created by potrace 1.11, written by Peter Selinger 2001-2013
</metadata>
<g transform="translate(0.000000,512.000000) scale(0.100000,-0.100000)"
fill="#000000" stroke="none">
<path d="M243 5112 l-233 -2 0 -2550 0 -2550 2555 0 2555 0 0 2550 0 2550
-1270 0 -1270 0 -2 -1272 -3 -1273 -5 1272 -5 1272 -1045 3 c-575 2 -1150 2
-1277 0z m744 -796 c28 -31 33 -43 33 -87 0 -44 -4 -55 -33 -84 -85 -85 -217
-29 -217 90 0 114 140 166 217 81z m1223 26 c76 -41 89 -135 26 -198 -40 -40
-90 -51 -139 -30 -94 39 -102 173 -14 226 40 25 82 25 127 2z m845 -2 c65 -40
81 -125 34 -184 -64 -82 -176 -69 -225 26 -18 35 -18 62 3 105 32 69 122 94
188 53z m647 -18 c43 -42 50 -112 16 -162 -34 -50 -93 -70 -150 -50 -104 36
-118 172 -25 231 48 30 119 22 159 -19z m598 23 c74 -38 85 -148 21 -209 -79
-75 -211 -18 -213 92 -1 101 102 164 192 117z m-3340 -630 c78 -40 80 -170 4
-219 -35 -24 -103 -24 -137 -1 -77 50 -75 170 2 218 33 21 93 22 131 2z m1258
-5 c65 -40 77 -128 26 -190 -74 -88 -210 -39 -222 80 -4 48 -3 52 36 90 34 34
46 40 83 40 26 0 57 -8 77 -20z m-1274 -614 c49 -20 76 -61 76 -113 0 -84 -48
-133 -130 -133 -32 0 -48 7 -76 33 -31 28 -37 41 -41 83 -5 60 21 108 70 129
41 18 60 18 101 1z m1250 0 c134 -56 94 -246 -52 -246 -114 0 -166 163 -73
229 44 32 79 36 125 17z m857 -9 c116 -77 67 -237 -72 -237 -78 0 -140 76
-124 150 8 36 49 88 79 100 38 15 82 10 117 -13z m626 3 c75 -45 84 -148 19
-207 -106 -98 -267 29 -201 158 21 39 71 69 115 69 19 0 49 -9 67 -20z m644
-16 c86 -83 36 -224 -80 -224 -82 0 -134 52 -133 133 2 109 135 166 213 91z
m-3340 -843 c35 -35 39 -44 39 -90 0 -44 -5 -56 -33 -87 -26 -28 -42 -37 -78
-41 -64 -7 -105 16 -131 73 -41 95 16 183 121 184 37 0 49 -5 82 -39z m1237
19 c34 -21 62 -71 62 -111 0 -37 -31 -88 -67 -110 -70 -43 -166 -5 -194 78
-15 45 2 93 47 133 42 37 101 41 152 10z m855 -18 c62 -63 41 -175 -40 -208
-70 -30 -152 11 -174 86 -10 33 -9 44 10 83 40 82 141 102 204 39z m605 18
c34 -21 62 -72 62 -112 0 -60 -69 -128 -130 -128 -63 0 -130 68 -130 133 0 97
113 158 198 107z m622 3 c77 -53 86 -151 19 -207 -61 -51 -148 -39 -189 26
-40 63 -11 161 55 188 34 14 89 11 115 -7z m-3332 -631 c69 -45 69 -169 0
-214 -78 -51 -175 -15 -199 74 -31 116 97 207 199 140z m1252 -1 c63 -44 74
-131 24 -190 -90 -107 -261 -17 -224 118 11 41 54 84 95 94 30 7 77 -2 105
-22z m-1276 -615 c49 -20 76 -60 76 -113 0 -79 -51 -133 -125 -133 -118 0
-173 131 -92 219 39 42 84 51 141 27z m1293 -28 c84 -84 27 -218 -92 -218 -73
0 -128 55 -128 127 0 116 138 173 220 91z m798 28 c69 -29 99 -133 54 -190
-64 -82 -180 -71 -221 21 -30 69 -3 139 66 169 40 17 59 17 101 0z m618 0 c72
-30 102 -100 74 -169 -40 -94 -173 -103 -227 -14 -38 61 -15 143 49 177 44 23
62 24 104 6z m653 -11 c80 -52 74 -179 -10 -219 -62 -29 -122 -14 -165 40 -44
56 -15 159 52 190 37 16 88 12 123 -11z"/>
</g>
</svg>
